%TF.GenerationSoftware,KiCad,Pcbnew,9.0.6-9.0.6~ubuntu24.04.1*%
%TF.CreationDate,2025-12-18T19:32:49+03:00*%
%TF.ProjectId,BoardRover2,426f6172-6452-46f7-9665-72322e6b6963,rev?*%
%TF.SameCoordinates,Original*%
%TF.FileFunction,Soldermask,Bot*%
%TF.FilePolarity,Negative*%
%FSLAX46Y46*%
G04 Gerber Fmt 4.6, Leading zero omitted, Abs format (unit mm)*
G04 Created by KiCad (PCBNEW 9.0.6-9.0.6~ubuntu24.04.1) date 2025-12-18 19:32:49*
%MOMM*%
%LPD*%
G01*
G04 APERTURE LIST*
G04 Aperture macros list*
%AMRoundRect*
0 Rectangle with rounded corners*
0 $1 Rounding radius*
0 $2 $3 $4 $5 $6 $7 $8 $9 X,Y pos of 4 corners*
0 Add a 4 corners polygon primitive as box body*
4,1,4,$2,$3,$4,$5,$6,$7,$8,$9,$2,$3,0*
0 Add four circle primitives for the rounded corners*
1,1,$1+$1,$2,$3*
1,1,$1+$1,$4,$5*
1,1,$1+$1,$6,$7*
1,1,$1+$1,$8,$9*
0 Add four rect primitives between the rounded corners*
20,1,$1+$1,$2,$3,$4,$5,0*
20,1,$1+$1,$4,$5,$6,$7,0*
20,1,$1+$1,$6,$7,$8,$9,0*
20,1,$1+$1,$8,$9,$2,$3,0*%
G04 Aperture macros list end*
%ADD10RoundRect,0.250000X-0.312500X-0.625000X0.312500X-0.625000X0.312500X0.625000X-0.312500X0.625000X0*%
%ADD11R,1.800000X1.800000*%
%ADD12C,1.800000*%
%ADD13RoundRect,0.250000X-0.625000X0.312500X-0.625000X-0.312500X0.625000X-0.312500X0.625000X0.312500X0*%
%ADD14RoundRect,0.249999X-0.790001X-1.550001X0.790001X-1.550001X0.790001X1.550001X-0.790001X1.550001X0*%
%ADD15O,2.080000X3.600000*%
%ADD16RoundRect,0.250000X0.550000X0.550000X-0.550000X0.550000X-0.550000X-0.550000X0.550000X-0.550000X0*%
%ADD17C,1.600000*%
%ADD18RoundRect,0.250000X-0.725000X0.600000X-0.725000X-0.600000X0.725000X-0.600000X0.725000X0.600000X0*%
%ADD19O,1.950000X1.700000*%
%ADD20RoundRect,0.250000X-0.550000X-0.550000X0.550000X-0.550000X0.550000X0.550000X-0.550000X0.550000X0*%
%ADD21RoundRect,0.249999X-1.550001X0.790001X-1.550001X-0.790001X1.550001X-0.790001X1.550001X0.790001X0*%
%ADD22O,3.600000X2.080000*%
%ADD23RoundRect,0.249999X1.550001X-0.790001X1.550001X0.790001X-1.550001X0.790001X-1.550001X-0.790001X0*%
%ADD24RoundRect,0.250000X0.725000X-0.600000X0.725000X0.600000X-0.725000X0.600000X-0.725000X-0.600000X0*%
%ADD25R,1.700000X1.700000*%
%ADD26C,1.700000*%
%ADD27R,1.905000X2.000000*%
%ADD28O,1.905000X2.000000*%
%ADD29RoundRect,0.250000X0.312500X0.625000X-0.312500X0.625000X-0.312500X-0.625000X0.312500X-0.625000X0*%
%ADD30RoundRect,0.250000X-0.650000X0.325000X-0.650000X-0.325000X0.650000X-0.325000X0.650000X0.325000X0*%
%ADD31RoundRect,0.375000X-0.625000X-0.375000X0.625000X-0.375000X0.625000X0.375000X-0.625000X0.375000X0*%
%ADD32RoundRect,0.500000X-0.500000X-1.400000X0.500000X-1.400000X0.500000X1.400000X-0.500000X1.400000X0*%
%ADD33RoundRect,0.250000X0.625000X-0.312500X0.625000X0.312500X-0.625000X0.312500X-0.625000X-0.312500X0*%
%ADD34RoundRect,0.250000X-0.325000X-0.650000X0.325000X-0.650000X0.325000X0.650000X-0.325000X0.650000X0*%
%ADD35RoundRect,0.250000X0.312500X1.450000X-0.312500X1.450000X-0.312500X-1.450000X0.312500X-1.450000X0*%
G04 APERTURE END LIST*
D10*
%TO.C,R12*%
X187575000Y-60960000D03*
X190500000Y-60960000D03*
%TD*%
D11*
%TO.C,D2*%
X195580000Y-60960000D03*
D12*
X193040000Y-60960000D03*
%TD*%
D13*
%TO.C,R11*%
X213188474Y-95206186D03*
X213188474Y-92281186D03*
%TD*%
D12*
%TO.C,D1*%
X212461990Y-104140000D03*
D11*
X212461990Y-106680000D03*
%TD*%
D14*
%TO.C,J5*%
X164382500Y-125762500D03*
D15*
X169462500Y-125762500D03*
%TD*%
D16*
%TO.C,U6*%
X154940000Y-90175000D03*
D17*
X154940000Y-87635000D03*
X147320000Y-87635000D03*
X147320000Y-90175000D03*
%TD*%
D18*
%TO.C,J9*%
X207679700Y-114380000D03*
D19*
X207679700Y-116880000D03*
X207679700Y-119380000D03*
%TD*%
D20*
%TO.C,U3*%
X195580000Y-99450000D03*
D17*
X195580000Y-101990000D03*
X203200000Y-101990000D03*
X203200000Y-99450000D03*
%TD*%
D21*
%TO.C,J4*%
X147360000Y-127000000D03*
D22*
X147360000Y-132080000D03*
%TD*%
D23*
%TO.C,J3*%
X204379700Y-132090000D03*
D22*
X204379700Y-127010000D03*
%TD*%
D24*
%TO.C,J6*%
X143450000Y-67250000D03*
D19*
X143450000Y-64750000D03*
X143450000Y-62250000D03*
X143450000Y-59750000D03*
%TD*%
D25*
%TO.C,U9*%
X167640000Y-58420000D03*
D26*
X167640000Y-60960000D03*
X167640000Y-63500000D03*
X167640000Y-66040000D03*
X167640000Y-68580000D03*
X167640000Y-71120000D03*
X167640000Y-73660000D03*
X167640000Y-76200000D03*
X167640000Y-78740000D03*
X167640000Y-81280000D03*
X167640000Y-83820000D03*
X167640000Y-86360000D03*
X167640000Y-88900000D03*
X167640000Y-91440000D03*
X167640000Y-93980000D03*
X167640000Y-96520000D03*
X167640000Y-99060000D03*
X167640000Y-101600000D03*
X167640000Y-104140000D03*
X167640000Y-106680000D03*
%TD*%
D24*
%TO.C,J8*%
X144060000Y-119336900D03*
D19*
X144060000Y-116836900D03*
X144060000Y-114336900D03*
%TD*%
D16*
%TO.C,U8*%
X154940000Y-101600000D03*
D17*
X154940000Y-99060000D03*
X147320000Y-99060000D03*
X147320000Y-101600000D03*
%TD*%
D18*
%TO.C,J7*%
X207069700Y-59750000D03*
D19*
X207069700Y-62250000D03*
X207069700Y-64750000D03*
X207069700Y-67250000D03*
%TD*%
D25*
%TO.C,J2*%
X180922500Y-132055000D03*
D26*
X183462500Y-132055000D03*
X186002500Y-132055000D03*
X188542500Y-132055000D03*
X191082500Y-132055000D03*
X193622500Y-132055000D03*
%TD*%
D25*
%TO.C,J1*%
X193650000Y-116840000D03*
D26*
X191110000Y-116840000D03*
X188570000Y-116840000D03*
X186030000Y-116840000D03*
X183490000Y-116840000D03*
X180950000Y-116840000D03*
%TD*%
D16*
%TO.C,U7*%
X154940000Y-77950000D03*
D17*
X154940000Y-75410000D03*
X147320000Y-75410000D03*
X147320000Y-77950000D03*
%TD*%
D20*
%TO.C,U1*%
X195580000Y-78730000D03*
D17*
X195580000Y-81270000D03*
X203200000Y-81270000D03*
X203200000Y-78730000D03*
%TD*%
D20*
%TO.C,U2*%
X195580000Y-88900000D03*
D17*
X195580000Y-91440000D03*
X203200000Y-91440000D03*
X203200000Y-88900000D03*
%TD*%
D27*
%TO.C,U10*%
X157205554Y-117223296D03*
D28*
X159745554Y-117223296D03*
X162285554Y-117223296D03*
%TD*%
D26*
%TO.C,U11*%
X182880000Y-106680000D03*
X182880000Y-104140000D03*
X182880000Y-101600000D03*
X182880000Y-99060000D03*
X182880000Y-96520000D03*
X182880000Y-93980000D03*
X182880000Y-91440000D03*
X182880000Y-88900000D03*
X182880000Y-86360000D03*
X182880000Y-83820000D03*
X182880000Y-81280000D03*
X182880000Y-78740000D03*
X182880000Y-76200000D03*
X182880000Y-73660000D03*
X182880000Y-71120000D03*
X182880000Y-68580000D03*
X182880000Y-66040000D03*
X182880000Y-63500000D03*
D25*
X182880000Y-58420000D03*
D26*
X182880000Y-60960000D03*
%TD*%
D10*
%TO.C,R1*%
X159635000Y-90565000D03*
X162560000Y-90565000D03*
%TD*%
D29*
%TO.C,R18*%
X142380000Y-78340000D03*
X139455000Y-78340000D03*
%TD*%
D10*
%TO.C,R6*%
X187575000Y-78340000D03*
X190500000Y-78340000D03*
%TD*%
D30*
%TO.C,C2*%
X149384191Y-117050428D03*
X149384191Y-120000428D03*
%TD*%
D10*
%TO.C,R2*%
X159635000Y-101990000D03*
X162560000Y-101990000D03*
%TD*%
D31*
%TO.C,U5*%
X169570000Y-119140000D03*
X169570000Y-116840000D03*
D32*
X175870000Y-116840000D03*
D31*
X169570000Y-114540000D03*
%TD*%
D29*
%TO.C,R17*%
X142380000Y-90565000D03*
X139455000Y-90565000D03*
%TD*%
%TO.C,R19*%
X142380000Y-101990000D03*
X139455000Y-101990000D03*
%TD*%
D33*
%TO.C,R9*%
X184142500Y-128916249D03*
X184142500Y-125991249D03*
%TD*%
D10*
%TO.C,R14*%
X206817500Y-88510000D03*
X209742500Y-88510000D03*
%TD*%
D29*
%TO.C,R10*%
X181048364Y-128678013D03*
X178123364Y-128678013D03*
%TD*%
D10*
%TO.C,R3*%
X159635000Y-78340000D03*
X162560000Y-78340000D03*
%TD*%
%TO.C,R5*%
X187575000Y-88510000D03*
X190500000Y-88510000D03*
%TD*%
D34*
%TO.C,C1*%
X165300000Y-129540000D03*
X168250000Y-129540000D03*
%TD*%
D10*
%TO.C,R13*%
X206817500Y-78340000D03*
X209742500Y-78340000D03*
%TD*%
D13*
%TO.C,R4*%
X157540188Y-120714932D03*
X157540188Y-123639932D03*
%TD*%
D35*
%TO.C,F1*%
X184615000Y-121517500D03*
X180340000Y-121517500D03*
%TD*%
D10*
%TO.C,R7*%
X187575000Y-99060000D03*
X190500000Y-99060000D03*
%TD*%
D13*
%TO.C,R8*%
X153286792Y-118259363D03*
X153286792Y-121184363D03*
%TD*%
D10*
%TO.C,R15*%
X206817500Y-99060000D03*
X209742500Y-99060000D03*
%TD*%
M02*
