%TF.GenerationSoftware,KiCad,Pcbnew,9.0.6-9.0.6~ubuntu24.04.1*%
%TF.CreationDate,2025-12-18T19:32:49+03:00*%
%TF.ProjectId,BoardRover2,426f6172-6452-46f7-9665-72322e6b6963,rev?*%
%TF.SameCoordinates,Original*%
%TF.FileFunction,Soldermask,Top*%
%TF.FilePolarity,Negative*%
%FSLAX46Y46*%
G04 Gerber Fmt 4.6, Leading zero omitted, Abs format (unit mm)*
G04 Created by KiCad (PCBNEW 9.0.6-9.0.6~ubuntu24.04.1) date 2025-12-18 19:32:49*
%MOMM*%
%LPD*%
G01*
G04 APERTURE LIST*
G04 Aperture macros list*
%AMRoundRect*
0 Rectangle with rounded corners*
0 $1 Rounding radius*
0 $2 $3 $4 $5 $6 $7 $8 $9 X,Y pos of 4 corners*
0 Add a 4 corners polygon primitive as box body*
4,1,4,$2,$3,$4,$5,$6,$7,$8,$9,$2,$3,0*
0 Add four circle primitives for the rounded corners*
1,1,$1+$1,$2,$3*
1,1,$1+$1,$4,$5*
1,1,$1+$1,$6,$7*
1,1,$1+$1,$8,$9*
0 Add four rect primitives between the rounded corners*
20,1,$1+$1,$2,$3,$4,$5,0*
20,1,$1+$1,$4,$5,$6,$7,0*
20,1,$1+$1,$6,$7,$8,$9,0*
20,1,$1+$1,$8,$9,$2,$3,0*%
G04 Aperture macros list end*
%ADD10R,1.800000X1.800000*%
%ADD11C,1.800000*%
%ADD12RoundRect,0.249999X-0.790001X-1.550001X0.790001X-1.550001X0.790001X1.550001X-0.790001X1.550001X0*%
%ADD13O,2.080000X3.600000*%
%ADD14RoundRect,0.250000X0.550000X0.550000X-0.550000X0.550000X-0.550000X-0.550000X0.550000X-0.550000X0*%
%ADD15C,1.600000*%
%ADD16RoundRect,0.250000X-0.725000X0.600000X-0.725000X-0.600000X0.725000X-0.600000X0.725000X0.600000X0*%
%ADD17O,1.950000X1.700000*%
%ADD18RoundRect,0.250000X-0.550000X-0.550000X0.550000X-0.550000X0.550000X0.550000X-0.550000X0.550000X0*%
%ADD19RoundRect,0.249999X-1.550001X0.790001X-1.550001X-0.790001X1.550001X-0.790001X1.550001X0.790001X0*%
%ADD20O,3.600000X2.080000*%
%ADD21RoundRect,0.249999X1.550001X-0.790001X1.550001X0.790001X-1.550001X0.790001X-1.550001X-0.790001X0*%
%ADD22RoundRect,0.250000X0.725000X-0.600000X0.725000X0.600000X-0.725000X0.600000X-0.725000X-0.600000X0*%
%ADD23R,1.700000X1.700000*%
%ADD24C,1.700000*%
%ADD25R,1.905000X2.000000*%
%ADD26O,1.905000X2.000000*%
G04 APERTURE END LIST*
D10*
%TO.C,D2*%
X195580000Y-60960000D03*
D11*
X193040000Y-60960000D03*
%TD*%
%TO.C,D1*%
X212461990Y-104140000D03*
D10*
X212461990Y-106680000D03*
%TD*%
D12*
%TO.C,J5*%
X164382500Y-125762500D03*
D13*
X169462500Y-125762500D03*
%TD*%
D14*
%TO.C,U6*%
X154940000Y-90175000D03*
D15*
X154940000Y-87635000D03*
X147320000Y-87635000D03*
X147320000Y-90175000D03*
%TD*%
D16*
%TO.C,J9*%
X207679700Y-114380000D03*
D17*
X207679700Y-116880000D03*
X207679700Y-119380000D03*
%TD*%
D18*
%TO.C,U3*%
X195580000Y-99450000D03*
D15*
X195580000Y-101990000D03*
X203200000Y-101990000D03*
X203200000Y-99450000D03*
%TD*%
D19*
%TO.C,J4*%
X147360000Y-127000000D03*
D20*
X147360000Y-132080000D03*
%TD*%
D21*
%TO.C,J3*%
X204379700Y-132090000D03*
D20*
X204379700Y-127010000D03*
%TD*%
D22*
%TO.C,J6*%
X143450000Y-67250000D03*
D17*
X143450000Y-64750000D03*
X143450000Y-62250000D03*
X143450000Y-59750000D03*
%TD*%
D23*
%TO.C,U9*%
X167640000Y-58420000D03*
D24*
X167640000Y-60960000D03*
X167640000Y-63500000D03*
X167640000Y-66040000D03*
X167640000Y-68580000D03*
X167640000Y-71120000D03*
X167640000Y-73660000D03*
X167640000Y-76200000D03*
X167640000Y-78740000D03*
X167640000Y-81280000D03*
X167640000Y-83820000D03*
X167640000Y-86360000D03*
X167640000Y-88900000D03*
X167640000Y-91440000D03*
X167640000Y-93980000D03*
X167640000Y-96520000D03*
X167640000Y-99060000D03*
X167640000Y-101600000D03*
X167640000Y-104140000D03*
X167640000Y-106680000D03*
%TD*%
D22*
%TO.C,J8*%
X144060000Y-119336900D03*
D17*
X144060000Y-116836900D03*
X144060000Y-114336900D03*
%TD*%
D14*
%TO.C,U8*%
X154940000Y-101600000D03*
D15*
X154940000Y-99060000D03*
X147320000Y-99060000D03*
X147320000Y-101600000D03*
%TD*%
D16*
%TO.C,J7*%
X207069700Y-59750000D03*
D17*
X207069700Y-62250000D03*
X207069700Y-64750000D03*
X207069700Y-67250000D03*
%TD*%
D23*
%TO.C,J2*%
X180922500Y-132055000D03*
D24*
X183462500Y-132055000D03*
X186002500Y-132055000D03*
X188542500Y-132055000D03*
X191082500Y-132055000D03*
X193622500Y-132055000D03*
%TD*%
D23*
%TO.C,J1*%
X193650000Y-116840000D03*
D24*
X191110000Y-116840000D03*
X188570000Y-116840000D03*
X186030000Y-116840000D03*
X183490000Y-116840000D03*
X180950000Y-116840000D03*
%TD*%
D14*
%TO.C,U7*%
X154940000Y-77950000D03*
D15*
X154940000Y-75410000D03*
X147320000Y-75410000D03*
X147320000Y-77950000D03*
%TD*%
D18*
%TO.C,U1*%
X195580000Y-78730000D03*
D15*
X195580000Y-81270000D03*
X203200000Y-81270000D03*
X203200000Y-78730000D03*
%TD*%
D18*
%TO.C,U2*%
X195580000Y-88900000D03*
D15*
X195580000Y-91440000D03*
X203200000Y-91440000D03*
X203200000Y-88900000D03*
%TD*%
D25*
%TO.C,U10*%
X157205554Y-117223296D03*
D26*
X159745554Y-117223296D03*
X162285554Y-117223296D03*
%TD*%
D24*
%TO.C,U11*%
X182880000Y-106680000D03*
X182880000Y-104140000D03*
X182880000Y-101600000D03*
X182880000Y-99060000D03*
X182880000Y-96520000D03*
X182880000Y-93980000D03*
X182880000Y-91440000D03*
X182880000Y-88900000D03*
X182880000Y-86360000D03*
X182880000Y-83820000D03*
X182880000Y-81280000D03*
X182880000Y-78740000D03*
X182880000Y-76200000D03*
X182880000Y-73660000D03*
X182880000Y-71120000D03*
X182880000Y-68580000D03*
X182880000Y-66040000D03*
X182880000Y-63500000D03*
D23*
X182880000Y-58420000D03*
D24*
X182880000Y-60960000D03*
%TD*%
M02*
