%TF.GenerationSoftware,KiCad,Pcbnew,9.0.6-9.0.6~ubuntu24.04.1*%
%TF.CreationDate,2026-01-23T18:38:10+03:00*%
%TF.ProjectId,BoardRover2,426f6172-6452-46f7-9665-72322e6b6963,rev?*%
%TF.SameCoordinates,Original*%
%TF.FileFunction,Paste,Bot*%
%TF.FilePolarity,Positive*%
%FSLAX46Y46*%
G04 Gerber Fmt 4.6, Leading zero omitted, Abs format (unit mm)*
G04 Created by KiCad (PCBNEW 9.0.6-9.0.6~ubuntu24.04.1) date 2026-01-23 18:38:10*
%MOMM*%
%LPD*%
G01*
G04 APERTURE LIST*
G04 Aperture macros list*
%AMRoundRect*
0 Rectangle with rounded corners*
0 $1 Rounding radius*
0 $2 $3 $4 $5 $6 $7 $8 $9 X,Y pos of 4 corners*
0 Add a 4 corners polygon primitive as box body*
4,1,4,$2,$3,$4,$5,$6,$7,$8,$9,$2,$3,0*
0 Add four circle primitives for the rounded corners*
1,1,$1+$1,$2,$3*
1,1,$1+$1,$4,$5*
1,1,$1+$1,$6,$7*
1,1,$1+$1,$8,$9*
0 Add four rect primitives between the rounded corners*
20,1,$1+$1,$2,$3,$4,$5,0*
20,1,$1+$1,$4,$5,$6,$7,0*
20,1,$1+$1,$6,$7,$8,$9,0*
20,1,$1+$1,$8,$9,$2,$3,0*%
G04 Aperture macros list end*
%ADD10RoundRect,0.250000X-0.312500X-0.625000X0.312500X-0.625000X0.312500X0.625000X-0.312500X0.625000X0*%
%ADD11RoundRect,0.250000X0.312500X0.625000X-0.312500X0.625000X-0.312500X-0.625000X0.312500X-0.625000X0*%
%ADD12RoundRect,0.250000X-0.650000X0.325000X-0.650000X-0.325000X0.650000X-0.325000X0.650000X0.325000X0*%
%ADD13RoundRect,0.375000X-0.625000X-0.375000X0.625000X-0.375000X0.625000X0.375000X-0.625000X0.375000X0*%
%ADD14RoundRect,0.500000X-0.500000X-1.400000X0.500000X-1.400000X0.500000X1.400000X-0.500000X1.400000X0*%
%ADD15RoundRect,0.250000X0.625000X-0.312500X0.625000X0.312500X-0.625000X0.312500X-0.625000X-0.312500X0*%
%ADD16RoundRect,0.250000X-0.325000X-0.650000X0.325000X-0.650000X0.325000X0.650000X-0.325000X0.650000X0*%
%ADD17RoundRect,0.250000X-0.625000X0.312500X-0.625000X-0.312500X0.625000X-0.312500X0.625000X0.312500X0*%
%ADD18RoundRect,0.250000X0.312500X1.450000X-0.312500X1.450000X-0.312500X-1.450000X0.312500X-1.450000X0*%
G04 APERTURE END LIST*
D10*
%TO.C,R1*%
X159635000Y-90565000D03*
X162560000Y-90565000D03*
%TD*%
D11*
%TO.C,R18*%
X142380000Y-78340000D03*
X139455000Y-78340000D03*
%TD*%
D10*
%TO.C,R6*%
X187575000Y-78340000D03*
X190500000Y-78340000D03*
%TD*%
D12*
%TO.C,C2*%
X149384191Y-117050428D03*
X149384191Y-120000428D03*
%TD*%
D10*
%TO.C,R2*%
X159635000Y-101990000D03*
X162560000Y-101990000D03*
%TD*%
D13*
%TO.C,U5*%
X169570000Y-119140000D03*
X169570000Y-116840000D03*
D14*
X175870000Y-116840000D03*
D13*
X169570000Y-114540000D03*
%TD*%
D11*
%TO.C,R17*%
X142380000Y-90565000D03*
X139455000Y-90565000D03*
%TD*%
%TO.C,R19*%
X142380000Y-101990000D03*
X139455000Y-101990000D03*
%TD*%
D15*
%TO.C,R9*%
X184142500Y-128916249D03*
X184142500Y-125991249D03*
%TD*%
D10*
%TO.C,R14*%
X206817500Y-88510000D03*
X209742500Y-88510000D03*
%TD*%
D11*
%TO.C,R10*%
X181048364Y-128678013D03*
X178123364Y-128678013D03*
%TD*%
D10*
%TO.C,R3*%
X159635000Y-78340000D03*
X162560000Y-78340000D03*
%TD*%
%TO.C,R5*%
X187575000Y-88510000D03*
X190500000Y-88510000D03*
%TD*%
D16*
%TO.C,C1*%
X165300000Y-129540000D03*
X168250000Y-129540000D03*
%TD*%
D17*
%TO.C,R11*%
X213188474Y-92281186D03*
X213188474Y-95206186D03*
%TD*%
D10*
%TO.C,R13*%
X206817500Y-78340000D03*
X209742500Y-78340000D03*
%TD*%
%TO.C,R12*%
X187575000Y-60960000D03*
X190500000Y-60960000D03*
%TD*%
D17*
%TO.C,R4*%
X157540188Y-120714932D03*
X157540188Y-123639932D03*
%TD*%
D18*
%TO.C,F1*%
X184615000Y-121517500D03*
X180340000Y-121517500D03*
%TD*%
D10*
%TO.C,R7*%
X187575000Y-99060000D03*
X190500000Y-99060000D03*
%TD*%
D17*
%TO.C,R8*%
X153286792Y-118259363D03*
X153286792Y-121184363D03*
%TD*%
D10*
%TO.C,R15*%
X206817500Y-99060000D03*
X209742500Y-99060000D03*
%TD*%
M02*
